<svg width="33" height="32" viewBox="0 0 33 32" fill="none" xmlns="http://www.w3.org/2000/svg">
<path fill-rule="evenodd" clip-rule="evenodd" d="M11.5902 19.0469C10.8705 18.3273 9.91875 17.9326 8.91473 17.9326C7.91071 17.9326 6.95893 18.3331 6.23929 19.0527C5.51964 19.7724 5.125 20.7241 5.125 21.7282C5.125 22.7322 5.51964 23.684 6.23929 24.3978C6.95893 25.1174 7.91071 25.5121 8.91473 25.5121C9.91875 25.5121 10.8705 25.1174 11.5902 24.3978C12.3098 23.6782 12.7045 22.7264 12.7045 21.7224C12.7045 20.7183 12.3098 19.7666 11.5902 19.0469ZM3.5 21.7224C3.5 18.7451 5.9375 16.3076 8.91473 16.3076C11.8978 16.3076 14.3353 18.7451 14.3295 21.7282C14.3295 24.7054 11.892 27.1429 8.91473 27.1429C5.9375 27.1429 3.5 24.7054 3.5 21.7224ZM22.0598 6.70271C22.0598 7.73575 21.2357 8.55986 20.2027 8.55986C19.1754 8.55986 18.3455 7.72995 18.3455 6.70271C18.3455 5.66968 19.1812 4.85718 20.2143 4.85718C21.2473 4.85718 22.0598 5.66968 22.0598 6.70271ZM26.7607 19.0469C26.0411 18.3273 25.0893 17.9326 24.0853 17.9326C23.0754 17.9326 22.1237 18.3331 21.4098 19.0527C20.6902 19.7724 20.2955 20.7241 20.2955 21.7282C20.2955 22.7322 20.6902 23.684 21.4098 24.4036C22.1295 25.1232 23.0813 25.5179 24.0853 25.5179C25.0893 25.5179 26.0411 25.1232 26.7607 24.3978C27.4804 23.6782 27.875 22.7264 27.875 21.7224C27.875 20.7183 27.4804 19.7666 26.7607 19.0469ZM18.6705 21.7224C18.6705 18.7451 21.108 16.3076 24.0853 16.3076C27.0625 16.3076 29.5 18.7451 29.5 21.7224C29.5 24.6996 27.0625 27.1371 24.0853 27.1371C21.108 27.1371 18.6705 24.6996 18.6705 21.7224ZM20.2142 12.2858H22.9999C23.5107 12.2858 23.9285 12.7036 23.9285 13.2143C23.9285 13.725 23.5107 14.1429 22.9999 14.1429H19.6687C19.2393 14.1429 18.8681 13.5046 18.3211 12.5638C18.0771 12.1441 17.7981 11.6643 17.4633 11.1541L14.6254 14.1429C14.9814 14.4214 15.4226 14.678 15.8488 14.9259C16.6663 15.4014 17.4285 15.8447 17.4285 16.3483V21.5715C17.4285 22.0822 17.0107 22.5 16.4999 22.5C15.9892 22.5 15.5714 22.0822 15.5714 21.5715V17.7469C15.5714 17.2115 15.1108 16.9697 13.916 16.3423C13.4143 16.0789 12.7831 15.7475 12.0022 15.2978C11.9815 15.2855 11.9593 15.2727 11.936 15.2591C11.574 15.0488 10.9285 14.6738 10.9285 13.725C10.9285 13.2375 11.1433 12.75 11.4683 12.425L15.6294 8.41478C15.9544 8.08978 16.4419 7.87505 16.9294 7.87505C17.5794 7.87505 18.1772 8.25808 18.5022 8.79781L20.2142 12.2858Z" fill="#FED801"/>
</svg>
