<svg width="24" height="24" viewBox="0 0 24 24" fill="none" xmlns="http://www.w3.org/2000/svg">
<path d="M22.6981 21.5206L22.6891 21.5111L22.6794 21.5024L18.3396 17.5865C19.8152 15.7824 20.7062 13.4416 20.7062 10.8893C20.7062 5.21808 16.3 0.5773 10.8486 0.5773C5.39713 0.5773 0.989966 5.21803 0.989966 10.8893C0.989966 16.5606 5.39708 21.2024 10.8486 21.2024C13.0703 21.2024 15.1215 20.4294 16.7697 19.1301L21.1671 23.1009C21.3761 23.3132 21.6509 23.4227 21.9275 23.4227C22.2082 23.4227 22.4894 23.3105 22.6999 23.0874C23.1148 22.6518 23.1124 21.9547 22.6981 21.5206ZM3.15448 10.8893C3.15448 6.4196 6.6215 2.81181 10.8486 2.81181C15.0746 2.81181 18.5417 6.41957 18.5417 10.8893C18.5417 15.3592 15.0746 18.9679 10.8486 18.9679C6.62156 18.9679 3.15448 15.3591 3.15448 10.8893Z" fill="black" stroke="black" stroke-width="0.7"/>
</svg>
